<svg xmlns="http://www.w3.org/2000/svg" xmlns:xlink="http://www.w3.org/1999/xlink" xmlns:lucid="lucid" width="800"
     height="760">
    <g transform="translate(-540 -80)" lucid:page-tab-id="0_0">
        <path d="M500 0h1000v1000H500z" fill="#fff"/>
        <path d="M746 100c-8.84 0-16 7.16-16 16v48c0 8.84 7.16 16 16 16h388c8.84 0 16-7.16 16-16v-48c0-8.84-7.16-16-16-16z"
              stroke="#5e5e5e" stroke-width="3" fill="#fff"/>
        <use xlink:href="#a" transform="matrix(1,0,0,1,738,108) translate(25.08641975308646 36.44444444444444)"/>
        <path d="M596 400c-8.84 0-16 7.16-16 16v48c0 8.84 7.16 16 16 16h688c8.84 0 16-7.16 16-16v-48c0-8.84-7.16-16-16-16z"
              stroke="#5e5e5e" stroke-width="3" fill="#fff"/>
        <use xlink:href="#b" transform="matrix(1,0,0,1,588,408) translate(18.635802469135854 36.44444444444444)"/>
        <path d="M944.5 372.53h-3v-69.2h3zm0-95.86h-3V183h3zM938.5 372.53h-3v-69.2h3zm0-95.86h-3V183h3z"
              fill="#5e5e5e"/>
        <path d="M944.5 183.04h-3v-1.54h3zM938.5 183.04h-3v-1.54h3z" fill="#5e5e5e"/>
        <path d="M940 395.55l-12.73-21.52h25.46z" fill="#fff"/>
        <path d="M940 398.5l-15.36-25.97h30.72zm-10.1-22.97L940 392.6l10.1-17.07z" fill="#5e5e5e"/>
        <use xlink:href="#c"
             transform="matrix(1,0,0,1,753.3024691358025,276.6666666666667) translate(0 17.77777777777778)"/>
        <path d="M584 700c-13.25 0-24 10.75-24 24v72c0 13.25 10.75 24 24 24h712c13.25 0 24-10.75 24-24v-72c0-13.25-10.75-24-24-24z"
              stroke="#5e5e5e" stroke-width="3" fill="#fff"/>
        <use xlink:href="#d" transform="matrix(1,0,0,1,568,708) translate(0 29.77777777777778)"/>
        <use xlink:href="#e" transform="matrix(1,0,0,1,568,708) translate(36.01 56.44444444444445)"/>
        <use xlink:href="#f" transform="matrix(1,0,0,1,568,708) translate(72.01 56.44444444444445)"/>
        <use xlink:href="#f" transform="matrix(1,0,0,1,568,708) translate(108.01 56.44444444444445)"/>
        <use xlink:href="#f" transform="matrix(1,0,0,1,568,708) translate(144.01 56.44444444444445)"/>
        <use xlink:href="#f" transform="matrix(1,0,0,1,568,708) translate(180.01 56.44444444444445)"/>
        <use xlink:href="#f" transform="matrix(1,0,0,1,568,708) translate(216.01 56.44444444444445)"/>
        <use xlink:href="#f" transform="matrix(1,0,0,1,568,708) translate(252.01 56.44444444444445)"/>
        <use xlink:href="#f" transform="matrix(1,0,0,1,568,708) translate(288.01 56.44444444444445)"/>
        <use xlink:href="#f" transform="matrix(1,0,0,1,568,708) translate(324.01 56.44444444444445)"/>
        <use xlink:href="#f" transform="matrix(1,0,0,1,568,708) translate(360.01 56.44444444444445)"/>
        <use xlink:href="#f" transform="matrix(1,0,0,1,568,708) translate(396.01 56.44444444444445)"/>
        <use xlink:href="#f" transform="matrix(1,0,0,1,568,708) translate(432.01 56.44444444444445)"/>
        <use xlink:href="#g" transform="matrix(1,0,0,1,568,708) translate(468.01 56.44444444444445)"/>
        <use xlink:href="#h" transform="matrix(1,0,0,1,568,708) translate(509.65814814814814 56.44444444444445)"/>
        <use xlink:href="#e" transform="matrix(1,0,0,1,568,708) translate(36.01 83.11111111111111)"/>
        <use xlink:href="#f" transform="matrix(1,0,0,1,568,708) translate(72.01 83.11111111111111)"/>
        <use xlink:href="#f" transform="matrix(1,0,0,1,568,708) translate(108.01 83.11111111111111)"/>
        <use xlink:href="#f" transform="matrix(1,0,0,1,568,708) translate(144.01 83.11111111111111)"/>
        <use xlink:href="#f" transform="matrix(1,0,0,1,568,708) translate(180.01 83.11111111111111)"/>
        <use xlink:href="#f" transform="matrix(1,0,0,1,568,708) translate(216.01 83.11111111111111)"/>
        <use xlink:href="#f" transform="matrix(1,0,0,1,568,708) translate(252.01 83.11111111111111)"/>
        <use xlink:href="#f" transform="matrix(1,0,0,1,568,708) translate(288.01 83.11111111111111)"/>
        <use xlink:href="#f" transform="matrix(1,0,0,1,568,708) translate(324.01 83.11111111111111)"/>
        <use xlink:href="#f" transform="matrix(1,0,0,1,568,708) translate(360.01 83.11111111111111)"/>
        <use xlink:href="#f" transform="matrix(1,0,0,1,568,708) translate(396.01 83.11111111111111)"/>
        <use xlink:href="#f" transform="matrix(1,0,0,1,568,708) translate(432.01 83.11111111111111)"/>
        <use xlink:href="#i" transform="matrix(1,0,0,1,568,708) translate(468.01 83.11111111111111)"/>
        <use xlink:href="#j" transform="matrix(1,0,0,1,568,708) translate(509.65814814814814 83.11111111111111)"/>
        <path d="M944.5 672.53h-3v-69.2h3zm0-95.86h-3V483h3zM938.5 672.53h-3v-69.2h3zm0-95.86h-3V483h3z"
              fill="#5e5e5e"/>
        <path d="M944.5 483.04h-3v-1.54h3zM938.5 483.04h-3v-1.54h3z" fill="#5e5e5e"/>
        <path d="M940 695.55l-12.73-21.52h25.46z" fill="#fff"/>
        <path d="M940 698.5l-15.36-25.97h30.72zm-10.1-22.97L940 692.6l10.1-17.07z" fill="#5e5e5e"/>
        <g>
            <use xlink:href="#k"
                 transform="matrix(1,0,0,1,843.8271604938273,576.6666666666666) translate(0 17.77777777777778)"/>
        </g>
        <defs>
            <path fill="#333"
                  d="M85-194c31 0 48 13 60 33l-1-100h32l1 261h-30c-2-10 0-23-3-31C134-8 116 4 85 4 32 4 16-35 15-94c0-66 23-100 70-100zm9 24c-40 0-46 34-46 75 0 40 6 74 45 74 42 0 51-32 51-76 0-42-9-74-50-73"
                  id="l"/>
            <path fill="#333"
                  d="M141-36C126-15 110 5 73 4 37 3 15-17 15-53c-1-64 63-63 125-63 3-35-9-54-41-54-24 1-41 7-42 31l-33-3c5-37 33-52 76-52 45 0 72 20 72 64v82c-1 20 7 32 28 27v20c-31 9-61-2-59-35zM48-53c0 20 12 33 32 33 41-3 63-29 60-74-43 2-92-5-92 41"
                  id="m"/>
            <path fill="#333" d="M59-47c-2 24 18 29 38 22v24C64 9 27 4 27-40v-127H5v-23h24l9-43h21v43h35v23H59v120"
                  id="n"/>
            <path fill="#333" d="M0 4l72-265h28L28 4H0" id="o"/>
            <path fill="#333"
                  d="M100-194c62-1 85 37 85 99 1 63-27 99-86 99S16-35 15-95c0-66 28-99 85-99zM99-20c44 1 53-31 53-75 0-43-8-75-51-75s-53 32-53 75 10 74 51 75"
                  id="p"/>
            <path fill="#333" d="M114-163C36-179 61-72 57 0H25l-1-190h30c1 12-1 29 2 39 6-27 23-49 58-41v29" id="q"/>
            <path fill="#333" d="M24-231v-30h32v30H24zM24 0v-190h32V0H24" id="r"/>
            <path fill="#333"
                  d="M177-190C167-65 218 103 67 71c-23-6-38-20-44-43l32-5c15 47 100 32 89-28v-30C133-14 115 1 83 1 29 1 15-40 15-95c0-56 16-97 71-98 29-1 48 16 59 35 1-10 0-23 2-32h30zM94-22c36 0 50-32 50-73 0-42-14-75-50-75-39 0-46 34-46 75s6 73 46 73"
                  id="s"/>
            <path fill="#333"
                  d="M117-194c89-4 53 116 60 194h-32v-121c0-31-8-49-39-48C34-167 62-67 57 0H25l-1-190h30c1 10-1 24 2 32 11-22 29-35 61-36"
                  id="t"/>
            <path fill="#333" d="M24 0v-261h32V0H24" id="u"/>
            <path fill="#333"
                  d="M135-143c-3-34-86-38-87 0 15 53 115 12 119 90S17 21 10-45l28-5c4 36 97 45 98 0-10-56-113-15-118-90-4-57 82-63 122-42 12 7 21 19 24 35"
                  id="v"/>
            <path fill="#0c7cba" d="M18-100v-36l175-74v27L42-118l151 64v27" id="w"/>
            <path fill="#0c7cba" d="M114-163C36-179 61-72 57 0H25l-1-190h30c1 12-1 29 2 39 6-27 23-49 58-41v29" id="x"/>
            <path fill="#0c7cba"
                  d="M100-194c63 0 86 42 84 106H49c0 40 14 67 53 68 26 1 43-12 49-29l28 8c-11 28-37 45-77 45C44 4 14-33 15-96c1-61 26-98 85-98zm52 81c6-60-76-77-97-28-3 7-6 17-6 28h103"
                  id="y"/>
            <path fill="#0c7cba"
                  d="M135-143c-3-34-86-38-87 0 15 53 115 12 119 90S17 21 10-45l28-5c4 36 97 45 98 0-10-56-113-15-118-90-4-57 82-63 122-42 12 7 21 19 24 35"
                  id="z"/>
            <path fill="#0c7cba"
                  d="M141-36C126-15 110 5 73 4 37 3 15-17 15-53c-1-64 63-63 125-63 3-35-9-54-41-54-24 1-41 7-42 31l-33-3c5-37 33-52 76-52 45 0 72 20 72 64v82c-1 20 7 32 28 27v20c-31 9-61-2-59-35zM48-53c0 20 12 33 32 33 41-3 63-29 60-74-43 2-92-5-92 41"
                  id="A"/>
            <path fill="#0c7cba"
                  d="M96-169c-40 0-48 33-48 73s9 75 48 75c24 0 41-14 43-38l32 2c-6 37-31 61-74 61-59 0-76-41-82-99-10-93 101-131 147-64 4 7 5 14 7 22l-32 3c-4-21-16-35-41-35"
                  id="B"/>
            <path fill="#0c7cba"
                  d="M106-169C34-169 62-67 57 0H25v-261h32l-1 103c12-21 28-36 61-36 89 0 53 116 60 194h-32v-121c2-32-8-49-39-48"
                  id="C"/>
            <path fill="#0c7cba" d="M-5 72V49h209v23H-5" id="D"/>
            <path fill="#0c7cba"
                  d="M177-190C167-65 218 103 67 71c-23-6-38-20-44-43l32-5c15 47 100 32 89-28v-30C133-14 115 1 83 1 29 1 15-40 15-95c0-56 16-97 71-98 29-1 48 16 59 35 1-10 0-23 2-32h30zM94-22c36 0 50-32 50-73 0-42-14-75-50-75-39 0-46 34-46 75s6 73 46 73"
                  id="E"/>
            <path fill="#0c7cba"
                  d="M100-194c62-1 85 37 85 99 1 63-27 99-86 99S16-35 15-95c0-66 28-99 85-99zM99-20c44 1 53-31 53-75 0-43-8-75-51-75s-53 32-53 75 10 74 51 75"
                  id="F"/>
            <path fill="#0c7cba"
                  d="M84 4C-5 8 30-112 23-190h32v120c0 31 7 50 39 49 72-2 45-101 50-169h31l1 190h-30c-1-10 1-25-2-33-11 22-28 36-60 37"
                  id="G"/>
            <path fill="#0c7cba"
                  d="M115-194c55 1 70 41 70 98S169 2 115 4C84 4 66-9 55-30l1 105H24l-1-265h31l2 30c10-21 28-34 59-34zm-8 174c40 0 45-34 45-75s-6-73-45-74c-42 0-51 32-51 76 0 43 10 73 51 73"
                  id="H"/>
            <path fill="#0c7cba" d="M18-27v-27l151-64-151-65v-27l175 74v36" id="I"/>
            <path fill="#333" d="M33 0v-38h34V0H33" id="J"/>
            <path fill="#333" d="M9 0v-24l116-142H16v-24h144v24L44-24h123V0H9" id="K"/>
            <path fill="#333"
                  d="M115-194c55 1 70 41 70 98S169 2 115 4C84 4 66-9 55-30l1 105H24l-1-265h31l2 30c10-21 28-34 59-34zm-8 174c40 0 45-34 45-75s-6-73-45-74c-42 0-51 32-51 76 0 43 10 73 51 73"
                  id="L"/>
            <g id="a">
                <use transform="matrix(0.06172839506172839,0,0,0.06172839506172839,0,0)" xlink:href="#l"/>
                <use transform="matrix(0.06172839506172839,0,0,0.06172839506172839,12.345679012345679,0)"
                     xlink:href="#m"/>
                <use transform="matrix(0.06172839506172839,0,0,0.06172839506172839,24.691358024691358,0)"
                     xlink:href="#n"/>
                <use transform="matrix(0.06172839506172839,0,0,0.06172839506172839,30.864197530864196,0)"
                     xlink:href="#m"/>
                <use transform="matrix(0.06172839506172839,0,0,0.06172839506172839,43.20987654320987,0)"
                     xlink:href="#o"/>
                <use transform="matrix(0.06172839506172839,0,0,0.06172839506172839,49.382716049382715,0)"
                     xlink:href="#p"/>
                <use transform="matrix(0.06172839506172839,0,0,0.06172839506172839,61.72839506172839,0)"
                     xlink:href="#q"/>
                <use transform="matrix(0.06172839506172839,0,0,0.06172839506172839,69.07407407407408,0)"
                     xlink:href="#r"/>
                <use transform="matrix(0.06172839506172839,0,0,0.06172839506172839,73.95061728395062,0)"
                     xlink:href="#s"/>
                <use transform="matrix(0.06172839506172839,0,0,0.06172839506172839,86.2962962962963,0)"
                     xlink:href="#r"/>
                <use transform="matrix(0.06172839506172839,0,0,0.06172839506172839,91.17283950617285,0)"
                     xlink:href="#t"/>
                <use transform="matrix(0.06172839506172839,0,0,0.06172839506172839,103.51851851851853,0)"
                     xlink:href="#m"/>
                <use transform="matrix(0.06172839506172839,0,0,0.06172839506172839,115.86419753086422,0)"
                     xlink:href="#u"/>
                <use transform="matrix(0.06172839506172839,0,0,0.06172839506172839,120.74074074074076,0)"
                     xlink:href="#v"/>
                <use transform="matrix(0.06172839506172839,0,0,0.06172839506172839,131.85185185185188,0)"
                     xlink:href="#o"/>
                <use transform="matrix(0.06172839506172839,0,0,0.06172839506172839,138.0246913580247,0)"
                     xlink:href="#w"/>
                <use transform="matrix(0.06172839506172839,0,0,0.06172839506172839,150.98765432098767,0)"
                     xlink:href="#x"/>
                <use transform="matrix(0.06172839506172839,0,0,0.06172839506172839,158.33333333333334,0)"
                     xlink:href="#y"/>
                <use transform="matrix(0.06172839506172839,0,0,0.06172839506172839,170.679012345679,0)"
                     xlink:href="#z"/>
                <use transform="matrix(0.06172839506172839,0,0,0.06172839506172839,181.79012345679013,0)"
                     xlink:href="#y"/>
                <use transform="matrix(0.06172839506172839,0,0,0.06172839506172839,194.1358024691358,0)"
                     xlink:href="#A"/>
                <use transform="matrix(0.06172839506172839,0,0,0.06172839506172839,206.48148148148147,0)"
                     xlink:href="#x"/>
                <use transform="matrix(0.06172839506172839,0,0,0.06172839506172839,213.82716049382714,0)"
                     xlink:href="#B"/>
                <use transform="matrix(0.06172839506172839,0,0,0.06172839506172839,224.93827160493825,0)"
                     xlink:href="#C"/>
                <use transform="matrix(0.06172839506172839,0,0,0.06172839506172839,237.28395061728392,0)"
                     xlink:href="#D"/>
                <use transform="matrix(0.06172839506172839,0,0,0.06172839506172839,249.6296296296296,0)"
                     xlink:href="#E"/>
                <use transform="matrix(0.06172839506172839,0,0,0.06172839506172839,261.9753086419753,0)"
                     xlink:href="#x"/>
                <use transform="matrix(0.06172839506172839,0,0,0.06172839506172839,269.32098765432096,0)"
                     xlink:href="#F"/>
                <use transform="matrix(0.06172839506172839,0,0,0.06172839506172839,281.66666666666663,0)"
                     xlink:href="#G"/>
                <use transform="matrix(0.06172839506172839,0,0,0.06172839506172839,294.0123456790123,0)"
                     xlink:href="#H"/>
                <use transform="matrix(0.06172839506172839,0,0,0.06172839506172839,306.35802469135797,0)"
                     xlink:href="#I"/>
                <use transform="matrix(0.06172839506172839,0,0,0.06172839506172839,319.3209876543209,0)"
                     xlink:href="#J"/>
                <use transform="matrix(0.06172839506172839,0,0,0.06172839506172839,325.49382716049377,0)"
                     xlink:href="#K"/>
                <use transform="matrix(0.06172839506172839,0,0,0.06172839506172839,336.60493827160485,0)"
                     xlink:href="#r"/>
                <use transform="matrix(0.06172839506172839,0,0,0.06172839506172839,341.4814814814814,0)"
                     xlink:href="#L"/>
            </g>
            <path fill="#333"
                  d="M84 4C-5 8 30-112 23-190h32v120c0 31 7 50 39 49 72-2 45-101 50-169h31l1 190h-30c-1-10 1-25-2-33-11 22-28 36-60 37"
                  id="M"/>
            <path fill="#333" d="M206 0h-36l-40-164L89 0H53L-1-190h32L70-26l43-164h34l41 164 42-164h31" id="N"/>
            <path fill="#333" d="M-5 72V49h209v23H-5" id="O"/>
            <path fill="#333"
                  d="M96-169c-40 0-48 33-48 73s9 75 48 75c24 0 41-14 43-38l32 2c-6 37-31 61-74 61-59 0-76-41-82-99-10-93 101-131 147-64 4 7 5 14 7 22l-32 3c-4-21-16-35-41-35"
                  id="P"/>
            <path fill="#333"
                  d="M100-194c63 0 86 42 84 106H49c0 40 14 67 53 68 26 1 43-12 49-29l28 8c-11 28-37 45-77 45C44 4 14-33 15-96c1-61 26-98 85-98zm52 81c6-60-76-77-97-28-3 7-6 17-6 28h103"
                  id="Q"/>
            <path fill="#de5f85" d="M18-100v-36l175-74v27L42-118l151 64v27" id="R"/>
            <path fill="#de5f85"
                  d="M135-143c-3-34-86-38-87 0 15 53 115 12 119 90S17 21 10-45l28-5c4 36 97 45 98 0-10-56-113-15-118-90-4-57 82-63 122-42 12 7 21 19 24 35"
                  id="S"/>
            <path fill="#de5f85" d="M24-231v-30h32v30H24zM24 0v-190h32V0H24" id="T"/>
            <path fill="#de5f85"
                  d="M117-194c89-4 53 116 60 194h-32v-121c0-31-8-49-39-48C34-167 62-67 57 0H25l-1-190h30c1 10-1 24 2 32 11-22 29-35 61-36"
                  id="U"/>
            <path fill="#de5f85"
                  d="M177-190C167-65 218 103 67 71c-23-6-38-20-44-43l32-5c15 47 100 32 89-28v-30C133-14 115 1 83 1 29 1 15-40 15-95c0-56 16-97 71-98 29-1 48 16 59 35 1-10 0-23 2-32h30zM94-22c36 0 50-32 50-73 0-42-14-75-50-75-39 0-46 34-46 75s6 73 46 73"
                  id="V"/>
            <path fill="#de5f85" d="M24 0v-261h32V0H24" id="W"/>
            <path fill="#de5f85"
                  d="M100-194c63 0 86 42 84 106H49c0 40 14 67 53 68 26 1 43-12 49-29l28 8c-11 28-37 45-77 45C44 4 14-33 15-96c1-61 26-98 85-98zm52 81c6-60-76-77-97-28-3 7-6 17-6 28h103"
                  id="X"/>
            <path fill="#de5f85" d="M32 76v-337h29V76H32" id="Y"/>
            <path fill="#de5f85"
                  d="M85-194c31 0 48 13 60 33l-1-100h32l1 261h-30c-2-10 0-23-3-31C134-8 116 4 85 4 32 4 16-35 15-94c0-66 23-100 70-100zm9 24c-40 0-46 34-46 75 0 40 6 74 45 74 42 0 51-32 51-76 0-42-9-74-50-73"
                  id="Z"/>
            <path fill="#de5f85"
                  d="M100-194c62-1 85 37 85 99 1 63-27 99-86 99S16-35 15-95c0-66 28-99 85-99zM99-20c44 1 53-31 53-75 0-43-8-75-51-75s-53 32-53 75 10 74 51 75"
                  id="aa"/>
            <path fill="#de5f85"
                  d="M84 4C-5 8 30-112 23-190h32v120c0 31 7 50 39 49 72-2 45-101 50-169h31l1 190h-30c-1-10 1-25-2-33-11 22-28 36-60 37"
                  id="ab"/>
            <path fill="#de5f85"
                  d="M115-194c53 0 69 39 70 98 0 66-23 100-70 100C84 3 66-7 56-30L54 0H23l1-261h32v101c10-23 28-34 59-34zm-8 174c40 0 45-34 45-75 0-40-5-75-45-74-42 0-51 32-51 76 0 43 10 73 51 73"
                  id="ac"/>
            <path fill="#de5f85" d="M18-27v-27l151-64-151-65v-27l175 74v36" id="ad"/>
            <path fill="#19967d" d="M18-100v-36l175-74v27L42-118l151 64v27" id="ae"/>
            <path fill="#19967d" d="M101-234c-31-9-42 10-38 44h38v23H63V0H32v-167H5v-23h27c-7-52 17-82 69-68v24"
                  id="af"/>
            <path fill="#19967d" d="M24-231v-30h32v30H24zM24 0v-190h32V0H24" id="ag"/>
            <path fill="#19967d" d="M24 0v-261h32V0H24" id="ah"/>
            <path fill="#19967d"
                  d="M100-194c63 0 86 42 84 106H49c0 40 14 67 53 68 26 1 43-12 49-29l28 8c-11 28-37 45-77 45C44 4 14-33 15-96c1-61 26-98 85-98zm52 81c6-60-76-77-97-28-3 7-6 17-6 28h103"
                  id="ai"/>
            <path fill="#19967d" d="M-5 72V49h209v23H-5" id="aj"/>
            <path fill="#19967d"
                  d="M117-194c89-4 53 116 60 194h-32v-121c0-31-8-49-39-48C34-167 62-67 57 0H25l-1-190h30c1 10-1 24 2 32 11-22 29-35 61-36"
                  id="ak"/>
            <path fill="#19967d"
                  d="M141-36C126-15 110 5 73 4 37 3 15-17 15-53c-1-64 63-63 125-63 3-35-9-54-41-54-24 1-41 7-42 31l-33-3c5-37 33-52 76-52 45 0 72 20 72 64v82c-1 20 7 32 28 27v20c-31 9-61-2-59-35zM48-53c0 20 12 33 32 33 41-3 63-29 60-74-43 2-92-5-92 41"
                  id="al"/>
            <path fill="#19967d"
                  d="M210-169c-67 3-38 105-44 169h-31v-121c0-29-5-50-35-48C34-165 62-65 56 0H25l-1-190h30c1 10-1 24 2 32 10-44 99-50 107 0 11-21 27-35 58-36 85-2 47 119 55 194h-31v-121c0-29-5-49-35-48"
                  id="am"/>
            <path fill="#19967d"
                  d="M135-143c-3-34-86-38-87 0 15 53 115 12 119 90S17 21 10-45l28-5c4 36 97 45 98 0-10-56-113-15-118-90-4-57 82-63 122-42 12 7 21 19 24 35"
                  id="an"/>
            <path fill="#19967d" d="M18-27v-27l151-64-151-65v-27l175 74v36" id="ao"/>
            <path fill="#333" d="M108 0H70L1-190h34L89-25l56-165h34" id="ap"/>
            <g id="b">
                <use transform="matrix(0.06172839506172839,0,0,0.06172839506172839,0,0)" xlink:href="#p"/>
                <use transform="matrix(0.06172839506172839,0,0,0.06172839506172839,12.345679012345679,0)"
                     xlink:href="#M"/>
                <use transform="matrix(0.06172839506172839,0,0,0.06172839506172839,24.691358024691358,0)"
                     xlink:href="#n"/>
                <use transform="matrix(0.06172839506172839,0,0,0.06172839506172839,30.864197530864196,0)"
                     xlink:href="#o"/>
                <use transform="matrix(0.06172839506172839,0,0,0.06172839506172839,37.03703703703704,0)"
                     xlink:href="#q"/>
                <use transform="matrix(0.06172839506172839,0,0,0.06172839506172839,44.382716049382715,0)"
                     xlink:href="#m"/>
                <use transform="matrix(0.06172839506172839,0,0,0.06172839506172839,56.72839506172839,0)"
                     xlink:href="#N"/>
                <use transform="matrix(0.06172839506172839,0,0,0.06172839506172839,72.71604938271605,0)"
                     xlink:href="#O"/>
                <use transform="matrix(0.06172839506172839,0,0,0.06172839506172839,85.06172839506173,0)"
                     xlink:href="#P"/>
                <use transform="matrix(0.06172839506172839,0,0,0.06172839506172839,96.17283950617285,0)"
                     xlink:href="#u"/>
                <use transform="matrix(0.06172839506172839,0,0,0.06172839506172839,101.0493827160494,0)"
                     xlink:href="#Q"/>
                <use transform="matrix(0.06172839506172839,0,0,0.06172839506172839,113.39506172839508,0)"
                     xlink:href="#m"/>
                <use transform="matrix(0.06172839506172839,0,0,0.06172839506172839,125.74074074074076,0)"
                     xlink:href="#t"/>
                <use transform="matrix(0.06172839506172839,0,0,0.06172839506172839,138.08641975308643,0)"
                     xlink:href="#o"/>
                <use transform="matrix(0.06172839506172839,0,0,0.06172839506172839,144.25925925925927,0)"
                     xlink:href="#R"/>
                <use transform="matrix(0.06172839506172839,0,0,0.06172839506172839,157.22222222222223,0)"
                     xlink:href="#S"/>
                <use transform="matrix(0.06172839506172839,0,0,0.06172839506172839,168.33333333333334,0)"
                     xlink:href="#T"/>
                <use transform="matrix(0.06172839506172839,0,0,0.06172839506172839,173.20987654320987,0)"
                     xlink:href="#U"/>
                <use transform="matrix(0.06172839506172839,0,0,0.06172839506172839,185.55555555555554,0)"
                     xlink:href="#V"/>
                <use transform="matrix(0.06172839506172839,0,0,0.06172839506172839,197.9012345679012,0)"
                     xlink:href="#W"/>
                <use transform="matrix(0.06172839506172839,0,0,0.06172839506172839,202.77777777777774,0)"
                     xlink:href="#X"/>
                <use transform="matrix(0.06172839506172839,0,0,0.06172839506172839,215.1234567901234,0)"
                     xlink:href="#Y"/>
                <use transform="matrix(0.06172839506172839,0,0,0.06172839506172839,220.86419753086415,0)"
                     xlink:href="#Z"/>
                <use transform="matrix(0.06172839506172839,0,0,0.06172839506172839,233.20987654320982,0)"
                     xlink:href="#aa"/>
                <use transform="matrix(0.06172839506172839,0,0,0.06172839506172839,245.5555555555555,0)"
                     xlink:href="#ab"/>
                <use transform="matrix(0.06172839506172839,0,0,0.06172839506172839,257.90123456790116,0)"
                     xlink:href="#ac"/>
                <use transform="matrix(0.06172839506172839,0,0,0.06172839506172839,270.2469135802468,0)"
                     xlink:href="#W"/>
                <use transform="matrix(0.06172839506172839,0,0,0.06172839506172839,275.1234567901234,0)"
                     xlink:href="#X"/>
                <use transform="matrix(0.06172839506172839,0,0,0.06172839506172839,287.46913580246905,0)"
                     xlink:href="#ad"/>
                <use transform="matrix(0.06172839506172839,0,0,0.06172839506172839,300.432098765432,0)"
                     xlink:href="#o"/>
                <use transform="matrix(0.06172839506172839,0,0,0.06172839506172839,306.60493827160485,0)"
                     xlink:href="#w"/>
                <use transform="matrix(0.06172839506172839,0,0,0.06172839506172839,319.5679012345678,0)"
                     xlink:href="#x"/>
                <use transform="matrix(0.06172839506172839,0,0,0.06172839506172839,326.91358024691345,0)"
                     xlink:href="#y"/>
                <use transform="matrix(0.06172839506172839,0,0,0.06172839506172839,339.2592592592591,0)"
                     xlink:href="#z"/>
                <use transform="matrix(0.06172839506172839,0,0,0.06172839506172839,350.3703703703702,0)"
                     xlink:href="#y"/>
                <use transform="matrix(0.06172839506172839,0,0,0.06172839506172839,362.7160493827159,0)"
                     xlink:href="#A"/>
                <use transform="matrix(0.06172839506172839,0,0,0.06172839506172839,375.06172839506155,0)"
                     xlink:href="#x"/>
                <use transform="matrix(0.06172839506172839,0,0,0.06172839506172839,382.4074074074072,0)"
                     xlink:href="#B"/>
                <use transform="matrix(0.06172839506172839,0,0,0.06172839506172839,393.5185185185183,0)"
                     xlink:href="#C"/>
                <use transform="matrix(0.06172839506172839,0,0,0.06172839506172839,405.864197530864,0)"
                     xlink:href="#D"/>
                <use transform="matrix(0.06172839506172839,0,0,0.06172839506172839,418.20987654320965,0)"
                     xlink:href="#E"/>
                <use transform="matrix(0.06172839506172839,0,0,0.06172839506172839,430.5555555555553,0)"
                     xlink:href="#x"/>
                <use transform="matrix(0.06172839506172839,0,0,0.06172839506172839,437.901234567901,0)"
                     xlink:href="#F"/>
                <use transform="matrix(0.06172839506172839,0,0,0.06172839506172839,450.24691358024666,0)"
                     xlink:href="#G"/>
                <use transform="matrix(0.06172839506172839,0,0,0.06172839506172839,462.5925925925923,0)"
                     xlink:href="#H"/>
                <use transform="matrix(0.06172839506172839,0,0,0.06172839506172839,474.938271604938,0)"
                     xlink:href="#I"/>
                <use transform="matrix(0.06172839506172839,0,0,0.06172839506172839,487.90123456790093,0)"
                     xlink:href="#o"/>
                <use transform="matrix(0.06172839506172839,0,0,0.06172839506172839,494.0740740740738,0)"
                     xlink:href="#ae"/>
                <use transform="matrix(0.06172839506172839,0,0,0.06172839506172839,507.03703703703667,0)"
                     xlink:href="#af"/>
                <use transform="matrix(0.06172839506172839,0,0,0.06172839506172839,513.2098765432096,0)"
                     xlink:href="#ag"/>
                <use transform="matrix(0.06172839506172839,0,0,0.06172839506172839,518.0864197530861,0)"
                     xlink:href="#ah"/>
                <use transform="matrix(0.06172839506172839,0,0,0.06172839506172839,522.9629629629627,0)"
                     xlink:href="#ai"/>
                <use transform="matrix(0.06172839506172839,0,0,0.06172839506172839,535.3086419753084,0)"
                     xlink:href="#aj"/>
                <use transform="matrix(0.06172839506172839,0,0,0.06172839506172839,547.6543209876542,0)"
                     xlink:href="#ak"/>
                <use transform="matrix(0.06172839506172839,0,0,0.06172839506172839,559.9999999999999,0)"
                     xlink:href="#al"/>
                <use transform="matrix(0.06172839506172839,0,0,0.06172839506172839,572.3456790123456,0)"
                     xlink:href="#am"/>
                <use transform="matrix(0.06172839506172839,0,0,0.06172839506172839,590.8024691358024,0)"
                     xlink:href="#ai"/>
                <use transform="matrix(0.06172839506172839,0,0,0.06172839506172839,603.1481481481482,0)"
                     xlink:href="#an"/>
                <use transform="matrix(0.06172839506172839,0,0,0.06172839506172839,614.2592592592592,0)"
                     xlink:href="#ao"/>
                <use transform="matrix(0.06172839506172839,0,0,0.06172839506172839,627.2222222222222,0)"
                     xlink:href="#J"/>
                <use transform="matrix(0.06172839506172839,0,0,0.06172839506172839,633.395061728395,0)"
                     xlink:href="#P"/>
                <use transform="matrix(0.06172839506172839,0,0,0.06172839506172839,644.5061728395061,0)"
                     xlink:href="#v"/>
                <use transform="matrix(0.06172839506172839,0,0,0.06172839506172839,655.6172839506172,0)"
                     xlink:href="#ap"/>
            </g>
            <path fill="#333"
                  d="M88-194c31-1 46 15 58 34l-1-101h50l1 261h-48c-2-10 0-23-3-31C134-8 116 4 84 4 32 4 16-41 15-95c0-56 19-97 73-99zm17 164c33 0 40-30 41-66 1-37-9-64-41-64s-38 30-39 65c0 43 13 65 39 65"
                  id="aq"/>
            <path fill="#333"
                  d="M133-34C117-15 103 5 69 4 32 3 11-16 11-54c-1-60 55-63 116-61 1-26-3-47-28-47-18 1-26 9-28 27l-52-2c7-38 36-58 82-57s74 22 75 68l1 82c-1 14 12 18 25 15v27c-30 8-71 5-69-32zm-48 3c29 0 43-24 42-57-32 0-66-3-65 30 0 17 8 27 23 27"
                  id="ar"/>
            <path fill="#333" d="M115-3C79 11 28 4 28-45v-112H4v-33h27l15-45h31v45h36v33H77v99c-1 23 16 31 38 25v30"
                  id="as"/>
            <path fill="#333" d="M-4 44V30h207v14H-4" id="at"/>
            <path fill="#333"
                  d="M190-63c-7 42-38 67-86 67-59 0-84-38-90-98-12-110 154-137 174-36l-49 2c-2-19-15-32-35-32-30 0-35 28-38 64-6 74 65 87 74 30"
                  id="au"/>
            <path fill="#333" d="M25 0v-261h50V0H25" id="av"/>
            <path fill="#333"
                  d="M185-48c-13 30-37 53-82 52C43 2 14-33 14-96s30-98 90-98c62 0 83 45 84 108H66c0 31 8 55 39 56 18 0 30-7 34-22zm-45-69c5-46-57-63-70-21-2 6-4 13-4 21h74"
                  id="aw"/>
            <path fill="#333"
                  d="M135-194c87-1 58 113 63 194h-50c-7-57 23-157-34-157-59 0-34 97-39 157H25l-1-190h47c2 12-1 28 3 38 12-26 28-41 61-42"
                  id="ax"/>
            <path fill="#333"
                  d="M85 4C-2 5 27-109 22-190h50c7 57-23 150 33 157 60-5 35-97 40-157h50l1 190h-47c-2-12 1-28-3-38-12 25-28 42-61 42"
                  id="ay"/>
            <path fill="#333"
                  d="M135-194c53 0 70 44 70 98 0 56-19 98-73 100-31 1-45-17-59-34 3 33 2 69 2 105H25l-1-265h48c2 10 0 23 3 31 11-24 29-35 60-35zM114-30c33 0 39-31 40-66 0-38-9-64-40-64-56 0-55 130 0 130"
                  id="az"/>
            <path fill="#333" d="M4 7l51-268h42L46 7H4" id="aA"/>
            <path fill="#0c7cba" d="M15-91v-56l181-69v40L49-119l147 57v40" id="aB"/>
            <path fill="#0c7cba" d="M135-150c-39-12-60 13-60 57V0H25l-1-190h47c2 13-1 29 3 40 6-28 27-53 61-41v41"
                  id="aC"/>
            <path fill="#0c7cba"
                  d="M185-48c-13 30-37 53-82 52C43 2 14-33 14-96s30-98 90-98c62 0 83 45 84 108H66c0 31 8 55 39 56 18 0 30-7 34-22zm-45-69c5-46-57-63-70-21-2 6-4 13-4 21h74"
                  id="aD"/>
            <path fill="#0c7cba"
                  d="M137-138c1-29-70-34-71-4 15 46 118 7 119 86 1 83-164 76-172 9l43-7c4 19 20 25 44 25 33 8 57-30 24-41C81-84 22-81 20-136c-2-80 154-74 161-7"
                  id="aE"/>
            <path fill="#0c7cba"
                  d="M133-34C117-15 103 5 69 4 32 3 11-16 11-54c-1-60 55-63 116-61 1-26-3-47-28-47-18 1-26 9-28 27l-52-2c7-38 36-58 82-57s74 22 75 68l1 82c-1 14 12 18 25 15v27c-30 8-71 5-69-32zm-48 3c29 0 43-24 42-57-32 0-66-3-65 30 0 17 8 27 23 27"
                  id="aF"/>
            <path fill="#0c7cba"
                  d="M190-63c-7 42-38 67-86 67-59 0-84-38-90-98-12-110 154-137 174-36l-49 2c-2-19-15-32-35-32-30 0-35 28-38 64-6 74 65 87 74 30"
                  id="aG"/>
            <path fill="#0c7cba"
                  d="M114-157C55-157 80-60 75 0H25v-261h50l-1 109c12-26 28-41 61-42 86-1 58 113 63 194h-50c-7-57 23-157-34-157"
                  id="aH"/>
            <path fill="#0c7cba" d="M-4 44V30h207v14H-4" id="aI"/>
            <path fill="#0c7cba"
                  d="M195-6C206 82 75 100 31 46c-4-6-6-13-8-21l49-6c3 16 16 24 34 25 40 0 42-37 40-79-11 22-30 35-61 35-53 0-70-43-70-97 0-56 18-96 73-97 30 0 46 14 59 34l2-30h47zm-90-29c32 0 41-27 41-63 0-35-9-62-40-62-32 0-39 29-40 63 0 36 9 62 39 62"
                  id="aJ"/>
            <path fill="#0c7cba"
                  d="M110-194c64 0 96 36 96 99 0 64-35 99-97 99-61 0-95-36-95-99 0-62 34-99 96-99zm-1 164c35 0 45-28 45-65 0-40-10-65-43-65-34 0-45 26-45 65 0 36 10 65 43 65"
                  id="aK"/>
            <path fill="#0c7cba"
                  d="M85 4C-2 5 27-109 22-190h50c7 57-23 150 33 157 60-5 35-97 40-157h50l1 190h-47c-2-12 1-28-3-38-12 25-28 42-61 42"
                  id="aL"/>
            <path fill="#0c7cba"
                  d="M135-194c53 0 70 44 70 98 0 56-19 98-73 100-31 1-45-17-59-34 3 33 2 69 2 105H25l-1-265h48c2 10 0 23 3 31 11-24 29-35 60-35zM114-30c33 0 39-31 40-66 0-38-9-64-40-64-56 0-55 130 0 130"
                  id="aM"/>
            <path fill="#0c7cba" d="M15-22v-40l146-57-146-57v-40l181 69v56" id="aN"/>
            <path fill="#333" d="M24 0v-54h51V0H24" id="aO"/>
            <path fill="#333" d="M123 10C108 53 80 86 19 72V37c35 8 53-11 59-39L3-190h52l48 148c12-52 28-100 44-148h51"
                  id="aP"/>
            <g id="c">
                <use transform="matrix(0.06172839506172839,0,0,0.06172839506172839,0,0)" xlink:href="#aq"/>
                <use transform="matrix(0.06172839506172839,0,0,0.06172839506172839,13.518518518518517,0)"
                     xlink:href="#ar"/>
                <use transform="matrix(0.06172839506172839,0,0,0.06172839506172839,25.864197530864196,0)"
                     xlink:href="#as"/>
                <use transform="matrix(0.06172839506172839,0,0,0.06172839506172839,33.20987654320987,0)"
                     xlink:href="#ar"/>
                <use transform="matrix(0.06172839506172839,0,0,0.06172839506172839,45.55555555555555,0)"
                     xlink:href="#at"/>
                <use transform="matrix(0.06172839506172839,0,0,0.06172839506172839,57.90123456790123,0)"
                     xlink:href="#au"/>
                <use transform="matrix(0.06172839506172839,0,0,0.06172839506172839,70.24691358024691,0)"
                     xlink:href="#av"/>
                <use transform="matrix(0.06172839506172839,0,0,0.06172839506172839,76.41975308641975,0)"
                     xlink:href="#aw"/>
                <use transform="matrix(0.06172839506172839,0,0,0.06172839506172839,88.76543209876543,0)"
                     xlink:href="#ar"/>
                <use transform="matrix(0.06172839506172839,0,0,0.06172839506172839,101.11111111111111,0)"
                     xlink:href="#ax"/>
                <use transform="matrix(0.06172839506172839,0,0,0.06172839506172839,114.62962962962963,0)"
                     xlink:href="#ay"/>
                <use transform="matrix(0.06172839506172839,0,0,0.06172839506172839,128.14814814814815,0)"
                     xlink:href="#az"/>
                <use transform="matrix(0.06172839506172839,0,0,0.06172839506172839,141.66666666666666,0)"
                     xlink:href="#aA"/>
                <use transform="matrix(0.06172839506172839,0,0,0.06172839506172839,147.8395061728395,0)"
                     xlink:href="#aB"/>
                <use transform="matrix(0.06172839506172839,0,0,0.06172839506172839,160.80246913580245,0)"
                     xlink:href="#aC"/>
                <use transform="matrix(0.06172839506172839,0,0,0.06172839506172839,169.44444444444443,0)"
                     xlink:href="#aD"/>
                <use transform="matrix(0.06172839506172839,0,0,0.06172839506172839,181.7901234567901,0)"
                     xlink:href="#aE"/>
                <use transform="matrix(0.06172839506172839,0,0,0.06172839506172839,194.13580246913577,0)"
                     xlink:href="#aD"/>
                <use transform="matrix(0.06172839506172839,0,0,0.06172839506172839,206.48148148148144,0)"
                     xlink:href="#aF"/>
                <use transform="matrix(0.06172839506172839,0,0,0.06172839506172839,218.8271604938271,0)"
                     xlink:href="#aC"/>
                <use transform="matrix(0.06172839506172839,0,0,0.06172839506172839,227.46913580246908,0)"
                     xlink:href="#aG"/>
                <use transform="matrix(0.06172839506172839,0,0,0.06172839506172839,239.81481481481475,0)"
                     xlink:href="#aH"/>
                <use transform="matrix(0.06172839506172839,0,0,0.06172839506172839,253.33333333333326,0)"
                     xlink:href="#aI"/>
                <use transform="matrix(0.06172839506172839,0,0,0.06172839506172839,265.6790123456789,0)"
                     xlink:href="#aJ"/>
                <use transform="matrix(0.06172839506172839,0,0,0.06172839506172839,279.19753086419746,0)"
                     xlink:href="#aC"/>
                <use transform="matrix(0.06172839506172839,0,0,0.06172839506172839,287.83950617283944,0)"
                     xlink:href="#aK"/>
                <use transform="matrix(0.06172839506172839,0,0,0.06172839506172839,301.35802469135797,0)"
                     xlink:href="#aL"/>
                <use transform="matrix(0.06172839506172839,0,0,0.06172839506172839,314.8765432098765,0)"
                     xlink:href="#aM"/>
                <use transform="matrix(0.06172839506172839,0,0,0.06172839506172839,328.39506172839504,0)"
                     xlink:href="#aN"/>
                <use transform="matrix(0.06172839506172839,0,0,0.06172839506172839,341.35802469135797,0)"
                     xlink:href="#aO"/>
                <use transform="matrix(0.06172839506172839,0,0,0.06172839506172839,347.53086419753083,0)"
                     xlink:href="#az"/>
                <use transform="matrix(0.06172839506172839,0,0,0.06172839506172839,361.04938271604937,0)"
                     xlink:href="#aP"/>
            </g>
            <path fill="#ef8d22" d="M18-100v-36l175-74v27L42-118l151 64v27" id="aQ"/>
            <path fill="#ef8d22"
                  d="M115-194c55 1 70 41 70 98S169 2 115 4C84 4 66-9 55-30l1 105H24l-1-265h31l2 30c10-21 28-34 59-34zm-8 174c40 0 45-34 45-75s-6-73-45-74c-42 0-51 32-51 76 0 43 10 73 51 73"
                  id="aR"/>
            <path fill="#ef8d22" d="M24-231v-30h32v30H24zM24 0v-190h32V0H24" id="aS"/>
            <path fill="#ef8d22" d="M141 0L90-78 38 0H4l68-98-65-92h35l48 74 47-74h35l-64 92 68 98h-35" id="aT"/>
            <path fill="#ef8d22"
                  d="M100-194c63 0 86 42 84 106H49c0 40 14 67 53 68 26 1 43-12 49-29l28 8c-11 28-37 45-77 45C44 4 14-33 15-96c1-61 26-98 85-98zm52 81c6-60-76-77-97-28-3 7-6 17-6 28h103"
                  id="aU"/>
            <path fill="#ef8d22" d="M24 0v-261h32V0H24" id="aV"/>
            <path fill="#ef8d22" d="M-5 72V49h209v23H-5" id="aW"/>
            <path fill="#ef8d22"
                  d="M135-143c-3-34-86-38-87 0 15 53 115 12 119 90S17 21 10-45l28-5c4 36 97 45 98 0-10-56-113-15-118-90-4-57 82-63 122-42 12 7 21 19 24 35"
                  id="aX"/>
            <path fill="#ef8d22" d="M9 0v-24l116-142H16v-24h144v24L44-24h123V0H9" id="aY"/>
            <path fill="#ef8d22" d="M18-27v-27l151-64-151-65v-27l175 74v36" id="aZ"/>
            <g id="d">
                <use transform="matrix(0.06172839506172839,0,0,0.06172839506172839,0,0)" xlink:href="#p"/>
                <use transform="matrix(0.06172839506172839,0,0,0.06172839506172839,12.345679012345679,0)"
                     xlink:href="#M"/>
                <use transform="matrix(0.06172839506172839,0,0,0.06172839506172839,24.691358024691358,0)"
                     xlink:href="#n"/>
                <use transform="matrix(0.06172839506172839,0,0,0.06172839506172839,30.864197530864196,0)"
                     xlink:href="#o"/>
                <use transform="matrix(0.06172839506172839,0,0,0.06172839506172839,37.03703703703704,0)"
                     xlink:href="#r"/>
                <use transform="matrix(0.06172839506172839,0,0,0.06172839506172839,41.91358024691358,0)"
                     xlink:href="#t"/>
                <use transform="matrix(0.06172839506172839,0,0,0.06172839506172839,54.25925925925926,0)"
                     xlink:href="#n"/>
                <use transform="matrix(0.06172839506172839,0,0,0.06172839506172839,60.4320987654321,0)"
                     xlink:href="#Q"/>
                <use transform="matrix(0.06172839506172839,0,0,0.06172839506172839,72.77777777777779,0)"
                     xlink:href="#q"/>
                <use transform="matrix(0.06172839506172839,0,0,0.06172839506172839,80.12345679012347,0)"
                     xlink:href="#L"/>
                <use transform="matrix(0.06172839506172839,0,0,0.06172839506172839,92.46913580246915,0)"
                     xlink:href="#p"/>
                <use transform="matrix(0.06172839506172839,0,0,0.06172839506172839,104.81481481481484,0)"
                     xlink:href="#u"/>
                <use transform="matrix(0.06172839506172839,0,0,0.06172839506172839,109.69135802469138,0)"
                     xlink:href="#m"/>
                <use transform="matrix(0.06172839506172839,0,0,0.06172839506172839,122.03703703703707,0)"
                     xlink:href="#n"/>
                <use transform="matrix(0.06172839506172839,0,0,0.06172839506172839,128.2098765432099,0)"
                     xlink:href="#Q"/>
                <use transform="matrix(0.06172839506172839,0,0,0.06172839506172839,140.55555555555557,0)"
                     xlink:href="#l"/>
                <use transform="matrix(0.06172839506172839,0,0,0.06172839506172839,152.90123456790124,0)"
                     xlink:href="#o"/>
                <use transform="matrix(0.06172839506172839,0,0,0.06172839506172839,159.07407407407408,0)"
                     xlink:href="#aQ"/>
                <use transform="matrix(0.06172839506172839,0,0,0.06172839506172839,172.03703703703704,0)"
                     xlink:href="#aR"/>
                <use transform="matrix(0.06172839506172839,0,0,0.06172839506172839,184.3827160493827,0)"
                     xlink:href="#aS"/>
                <use transform="matrix(0.06172839506172839,0,0,0.06172839506172839,189.25925925925924,0)"
                     xlink:href="#aT"/>
                <use transform="matrix(0.06172839506172839,0,0,0.06172839506172839,200.37037037037035,0)"
                     xlink:href="#aU"/>
                <use transform="matrix(0.06172839506172839,0,0,0.06172839506172839,212.71604938271602,0)"
                     xlink:href="#aV"/>
                <use transform="matrix(0.06172839506172839,0,0,0.06172839506172839,217.59259259259255,0)"
                     xlink:href="#aW"/>
                <use transform="matrix(0.06172839506172839,0,0,0.06172839506172839,229.93827160493822,0)"
                     xlink:href="#aX"/>
                <use transform="matrix(0.06172839506172839,0,0,0.06172839506172839,241.04938271604934,0)"
                     xlink:href="#aS"/>
                <use transform="matrix(0.06172839506172839,0,0,0.06172839506172839,245.92592592592587,0)"
                     xlink:href="#aY"/>
                <use transform="matrix(0.06172839506172839,0,0,0.06172839506172839,257.03703703703695,0)"
                     xlink:href="#aU"/>
                <use transform="matrix(0.06172839506172839,0,0,0.06172839506172839,269.3827160493826,0)"
                     xlink:href="#aZ"/>
                <use transform="matrix(0.06172839506172839,0,0,0.06172839506172839,282.3456790123456,0)"
                     xlink:href="#o"/>
                <use transform="matrix(0.06172839506172839,0,0,0.06172839506172839,288.5185185185185,0)"
                     xlink:href="#R"/>
                <use transform="matrix(0.06172839506172839,0,0,0.06172839506172839,301.4814814814814,0)"
                     xlink:href="#S"/>
                <use transform="matrix(0.06172839506172839,0,0,0.06172839506172839,312.5925925925925,0)"
                     xlink:href="#T"/>
                <use transform="matrix(0.06172839506172839,0,0,0.06172839506172839,317.46913580246905,0)"
                     xlink:href="#U"/>
                <use transform="matrix(0.06172839506172839,0,0,0.06172839506172839,329.8148148148147,0)"
                     xlink:href="#V"/>
                <use transform="matrix(0.06172839506172839,0,0,0.06172839506172839,342.1604938271604,0)"
                     xlink:href="#W"/>
                <use transform="matrix(0.06172839506172839,0,0,0.06172839506172839,347.03703703703695,0)"
                     xlink:href="#X"/>
                <use transform="matrix(0.06172839506172839,0,0,0.06172839506172839,359.3827160493826,0)"
                     xlink:href="#Y"/>
                <use transform="matrix(0.06172839506172839,0,0,0.06172839506172839,365.1234567901234,0)"
                     xlink:href="#Z"/>
                <use transform="matrix(0.06172839506172839,0,0,0.06172839506172839,377.46913580246905,0)"
                     xlink:href="#aa"/>
                <use transform="matrix(0.06172839506172839,0,0,0.06172839506172839,389.8148148148147,0)"
                     xlink:href="#ab"/>
                <use transform="matrix(0.06172839506172839,0,0,0.06172839506172839,402.1604938271604,0)"
                     xlink:href="#ac"/>
                <use transform="matrix(0.06172839506172839,0,0,0.06172839506172839,414.50617283950606,0)"
                     xlink:href="#W"/>
                <use transform="matrix(0.06172839506172839,0,0,0.06172839506172839,419.3827160493826,0)"
                     xlink:href="#X"/>
                <use transform="matrix(0.06172839506172839,0,0,0.06172839506172839,431.7283950617283,0)"
                     xlink:href="#ad"/>
                <use transform="matrix(0.06172839506172839,0,0,0.06172839506172839,444.6913580246912,0)"
                     xlink:href="#o"/>
                <use transform="matrix(0.06172839506172839,0,0,0.06172839506172839,450.8641975308641,0)"
                     xlink:href="#w"/>
                <use transform="matrix(0.06172839506172839,0,0,0.06172839506172839,463.827160493827,0)"
                     xlink:href="#x"/>
                <use transform="matrix(0.06172839506172839,0,0,0.06172839506172839,471.1728395061727,0)"
                     xlink:href="#y"/>
                <use transform="matrix(0.06172839506172839,0,0,0.06172839506172839,483.51851851851836,0)"
                     xlink:href="#z"/>
                <use transform="matrix(0.06172839506172839,0,0,0.06172839506172839,494.62962962962945,0)"
                     xlink:href="#y"/>
                <use transform="matrix(0.06172839506172839,0,0,0.06172839506172839,506.9753086419752,0)"
                     xlink:href="#A"/>
                <use transform="matrix(0.06172839506172839,0,0,0.06172839506172839,519.3209876543208,0)"
                     xlink:href="#x"/>
                <use transform="matrix(0.06172839506172839,0,0,0.06172839506172839,526.6666666666665,0)"
                     xlink:href="#B"/>
                <use transform="matrix(0.06172839506172839,0,0,0.06172839506172839,537.7777777777776,0)"
                     xlink:href="#C"/>
                <use transform="matrix(0.06172839506172839,0,0,0.06172839506172839,550.1234567901233,0)"
                     xlink:href="#D"/>
                <use transform="matrix(0.06172839506172839,0,0,0.06172839506172839,562.469135802469,0)"
                     xlink:href="#E"/>
                <use transform="matrix(0.06172839506172839,0,0,0.06172839506172839,574.8148148148148,0)"
                     xlink:href="#x"/>
                <use transform="matrix(0.06172839506172839,0,0,0.06172839506172839,582.1604938271605,0)"
                     xlink:href="#F"/>
                <use transform="matrix(0.06172839506172839,0,0,0.06172839506172839,594.5061728395062,0)"
                     xlink:href="#G"/>
                <use transform="matrix(0.06172839506172839,0,0,0.06172839506172839,606.851851851852,0)"
                     xlink:href="#H"/>
                <use transform="matrix(0.06172839506172839,0,0,0.06172839506172839,619.1975308641977,0)"
                     xlink:href="#I"/>
            </g>
            <path d="M115-328h25v206h117v25H140v206h-25v-437" id="ba"/>
            <path d="M-2-97v-25h259v25H-2" id="bb"/>
            <g id="g">
                <use transform="matrix(0.048148148148148155,0,0,0.048148148148148155,0,0)" xlink:href="#ba"/>
                <use transform="matrix(0.048148148148148155,0,0,0.048148148148148155,12.27777777777778,0)"
                     xlink:href="#bb"/>
                <use transform="matrix(0.048148148148148155,0,0,0.048148148148148155,24.55555555555556,0)"
                     xlink:href="#bb"/>
            </g>
            <g id="h">
                <use transform="matrix(0.06172839506172839,0,0,0.06172839506172839,0,0)" xlink:href="#P"/>
                <use transform="matrix(0.06172839506172839,0,0,0.06172839506172839,11.11111111111111,0)"
                     xlink:href="#v"/>
                <use transform="matrix(0.06172839506172839,0,0,0.06172839506172839,22.22222222222222,0)"
                     xlink:href="#ap"/>
                <use transform="matrix(0.06172839506172839,0,0,0.06172839506172839,33.33333333333333,0)"
                     xlink:href="#o"/>
                <use transform="matrix(0.06172839506172839,0,0,0.06172839506172839,39.50617283950617,0)"
                     xlink:href="#ae"/>
                <use transform="matrix(0.06172839506172839,0,0,0.06172839506172839,52.46913580246913,0)"
                     xlink:href="#af"/>
                <use transform="matrix(0.06172839506172839,0,0,0.06172839506172839,58.641975308641975,0)"
                     xlink:href="#ag"/>
                <use transform="matrix(0.06172839506172839,0,0,0.06172839506172839,63.51851851851851,0)"
                     xlink:href="#ah"/>
                <use transform="matrix(0.06172839506172839,0,0,0.06172839506172839,68.39506172839506,0)"
                     xlink:href="#ai"/>
                <use transform="matrix(0.06172839506172839,0,0,0.06172839506172839,80.74074074074075,0)"
                     xlink:href="#aj"/>
                <use transform="matrix(0.06172839506172839,0,0,0.06172839506172839,93.08641975308643,0)"
                     xlink:href="#ak"/>
                <use transform="matrix(0.06172839506172839,0,0,0.06172839506172839,105.43209876543212,0)"
                     xlink:href="#al"/>
                <use transform="matrix(0.06172839506172839,0,0,0.06172839506172839,117.7777777777778,0)"
                     xlink:href="#am"/>
                <use transform="matrix(0.06172839506172839,0,0,0.06172839506172839,136.23456790123458,0)"
                     xlink:href="#ai"/>
                <use transform="matrix(0.06172839506172839,0,0,0.06172839506172839,148.58024691358025,0)"
                     xlink:href="#an"/>
                <use transform="matrix(0.06172839506172839,0,0,0.06172839506172839,159.69135802469137,0)"
                     xlink:href="#ao"/>
                <use transform="matrix(0.06172839506172839,0,0,0.06172839506172839,172.65432098765433,0)"
                     xlink:href="#J"/>
                <use transform="matrix(0.06172839506172839,0,0,0.06172839506172839,178.82716049382717,0)"
                     xlink:href="#s"/>
                <use transform="matrix(0.06172839506172839,0,0,0.06172839506172839,191.17283950617283,0)"
                     xlink:href="#K"/>
            </g>
            <path d="M115-328h25v206h117v25H115v-231" id="bc"/>
            <g id="i">
                <use transform="matrix(0.048148148148148155,0,0,0.048148148148148155,0,0)" xlink:href="#bc"/>
                <use transform="matrix(0.048148148148148155,0,0,0.048148148148148155,12.27777777777778,0)"
                     xlink:href="#bb"/>
                <use transform="matrix(0.048148148148148155,0,0,0.048148148148148155,24.55555555555556,0)"
                     xlink:href="#bb"/>
            </g>
            <path fill="#333"
                  d="M210-169c-67 3-38 105-44 169h-31v-121c0-29-5-50-35-48C34-165 62-65 56 0H25l-1-190h30c1 10-1 24 2 32 10-44 99-50 107 0 11-21 27-35 58-36 85-2 47 119 55 194h-31v-121c0-29-5-49-35-48"
                  id="bd"/>
            <g id="j">
                <use transform="matrix(0.06172839506172839,0,0,0.06172839506172839,0,0)" xlink:href="#r"/>
                <use transform="matrix(0.06172839506172839,0,0,0.06172839506172839,4.876543209876543,0)"
                     xlink:href="#bd"/>
                <use transform="matrix(0.06172839506172839,0,0,0.06172839506172839,23.33333333333333,0)"
                     xlink:href="#s"/>
                <use transform="matrix(0.06172839506172839,0,0,0.06172839506172839,35.679012345679006,0)"
                     xlink:href="#o"/>
                <use transform="matrix(0.06172839506172839,0,0,0.06172839506172839,41.85185185185185,0)"
                     xlink:href="#ae"/>
                <use transform="matrix(0.06172839506172839,0,0,0.06172839506172839,54.81481481481481,0)"
                     xlink:href="#af"/>
                <use transform="matrix(0.06172839506172839,0,0,0.06172839506172839,60.98765432098765,0)"
                     xlink:href="#ag"/>
                <use transform="matrix(0.06172839506172839,0,0,0.06172839506172839,65.86419753086419,0)"
                     xlink:href="#ah"/>
                <use transform="matrix(0.06172839506172839,0,0,0.06172839506172839,70.74074074074073,0)"
                     xlink:href="#ai"/>
                <use transform="matrix(0.06172839506172839,0,0,0.06172839506172839,83.08641975308642,0)"
                     xlink:href="#aj"/>
                <use transform="matrix(0.06172839506172839,0,0,0.06172839506172839,95.4320987654321,0)"
                     xlink:href="#ak"/>
                <use transform="matrix(0.06172839506172839,0,0,0.06172839506172839,107.77777777777779,0)"
                     xlink:href="#al"/>
                <use transform="matrix(0.06172839506172839,0,0,0.06172839506172839,120.12345679012347,0)"
                     xlink:href="#am"/>
                <use transform="matrix(0.06172839506172839,0,0,0.06172839506172839,138.58024691358025,0)"
                     xlink:href="#ai"/>
                <use transform="matrix(0.06172839506172839,0,0,0.06172839506172839,150.92592592592592,0)"
                     xlink:href="#an"/>
                <use transform="matrix(0.06172839506172839,0,0,0.06172839506172839,162.03703703703704,0)"
                     xlink:href="#ao"/>
                <use transform="matrix(0.06172839506172839,0,0,0.06172839506172839,175,0)" xlink:href="#J"/>
                <use transform="matrix(0.06172839506172839,0,0,0.06172839506172839,181.17283950617283,0)"
                     xlink:href="#L"/>
                <use transform="matrix(0.06172839506172839,0,0,0.06172839506172839,193.5185185185185,0)"
                     xlink:href="#t"/>
                <use transform="matrix(0.06172839506172839,0,0,0.06172839506172839,205.86419753086417,0)"
                     xlink:href="#s"/>
            </g>
            <path fill="#333" d="M135-150c-39-12-60 13-60 57V0H25l-1-190h47c2 13-1 29 3 40 6-28 27-53 61-41v41"
                  id="be"/>
            <path fill="#333" d="M231 0h-52l-39-155L100 0H48L-1-190h46L77-45c9-52 24-97 36-145h53l37 145 32-145h46"
                  id="bf"/>
            <path fill="#333"
                  d="M110-194c64 0 96 36 96 99 0 64-35 99-97 99-61 0-95-36-95-99 0-62 34-99 96-99zm-1 164c35 0 45-28 45-65 0-40-10-65-43-65-34 0-45 26-45 65 0 36 10 65 43 65"
                  id="bg"/>
            <path fill="#333" d="M25-224v-37h50v37H25zM25 0v-190h50V0H25" id="bh"/>
            <path fill="#333"
                  d="M220-157c-53 9-28 100-34 157h-49v-107c1-27-5-49-29-50C55-147 81-57 75 0H25l-1-190h47c2 12-1 28 3 38 10-53 101-56 108 0 13-22 24-43 59-42 82 1 51 116 57 194h-49v-107c-1-25-5-48-29-50"
                  id="bi"/>
            <path fill="#333"
                  d="M195-6C206 82 75 100 31 46c-4-6-6-13-8-21l49-6c3 16 16 24 34 25 40 0 42-37 40-79-11 22-30 35-61 35-53 0-70-43-70-97 0-56 18-96 73-97 30 0 46 14 59 34l2-30h47zm-90-29c32 0 41-27 41-63 0-35-9-62-40-62-32 0-39 29-40 63 0 36 9 62 39 62"
                  id="bj"/>
            <path fill="#333"
                  d="M137-138c1-29-70-34-71-4 15 46 118 7 119 86 1 83-164 76-172 9l43-7c4 19 20 25 44 25 33 8 57-30 24-41C81-84 22-81 20-136c-2-80 154-74 161-7"
                  id="bk"/>
            <g id="k">
                <use transform="matrix(0.06172839506172839,0,0,0.06172839506172839,0,0)" xlink:href="#be"/>
                <use transform="matrix(0.06172839506172839,0,0,0.06172839506172839,8.641975308641975,0)"
                     xlink:href="#ar"/>
                <use transform="matrix(0.06172839506172839,0,0,0.06172839506172839,20.98765432098765,0)"
                     xlink:href="#bf"/>
                <use transform="matrix(0.06172839506172839,0,0,0.06172839506172839,38.2716049382716,0)"
                     xlink:href="#at"/>
                <use transform="matrix(0.06172839506172839,0,0,0.06172839506172839,50.61728395061728,0)"
                     xlink:href="#as"/>
                <use transform="matrix(0.06172839506172839,0,0,0.06172839506172839,57.962962962962955,0)"
                     xlink:href="#bg"/>
                <use transform="matrix(0.06172839506172839,0,0,0.06172839506172839,71.48148148148147,0)"
                     xlink:href="#at"/>
                <use transform="matrix(0.06172839506172839,0,0,0.06172839506172839,83.82716049382715,0)"
                     xlink:href="#bh"/>
                <use transform="matrix(0.06172839506172839,0,0,0.06172839506172839,89.99999999999999,0)"
                     xlink:href="#bi"/>
                <use transform="matrix(0.06172839506172839,0,0,0.06172839506172839,109.75308641975307,0)"
                     xlink:href="#ar"/>
                <use transform="matrix(0.06172839506172839,0,0,0.06172839506172839,122.09876543209876,0)"
                     xlink:href="#bj"/>
                <use transform="matrix(0.06172839506172839,0,0,0.06172839506172839,135.61728395061726,0)"
                     xlink:href="#aw"/>
                <use transform="matrix(0.06172839506172839,0,0,0.06172839506172839,147.96296296296293,0)"
                     xlink:href="#bk"/>
                <use transform="matrix(0.06172839506172839,0,0,0.06172839506172839,160.3086419753086,0)"
                     xlink:href="#aO"/>
                <use transform="matrix(0.06172839506172839,0,0,0.06172839506172839,166.48148148148144,0)"
                     xlink:href="#az"/>
                <use transform="matrix(0.06172839506172839,0,0,0.06172839506172839,179.99999999999994,0)"
                     xlink:href="#aP"/>
            </g>
        </defs>
    </g>
</svg>